<?xml version="1.0" encoding="utf-8"?>
<!-- Generator: Adobe Illustrator 27.0.0, SVG Export Plug-In . SVG Version: 6.00 Build 0)  -->
<svg version="1.1"
	 id="svg12" xmlns:sodipodi="http://sodipodi.sourceforge.net/DTD/sodipodi-0.dtd" xmlns:inkscape="http://www.inkscape.org/namespaces/inkscape" xmlns:svg="http://www.w3.org/2000/svg" sodipodi:docname="logo.svg"
	 xmlns="http://www.w3.org/2000/svg" xmlns:xlink="http://www.w3.org/1999/xlink" x="0px" y="0px" viewBox="0 0 90 27.4"
	 style="enable-background:new 0 0 90 27.4;" xml:space="preserve">
<sodipodi:namedview  bordercolor="#000000" borderopacity="0.25" id="namedview14" inkscape:deskcolor="#d1d1d1" inkscape:pagecheckerboard="0" inkscape:pageopacity="0.0" inkscape:showpageshadow="2" pagecolor="#ffffff">
	</sodipodi:namedview>
<g id="SvgjsG10991" transform="matrix(4.139081369744399,0,0,4.139081369744399,97.59891273009414,7.235048519070212)">
	<path id="path9" d="M-22.1,1.9c-0.2-0.1-0.4-0.2-0.5-0.3c-0.2-0.1-0.3-0.2-0.4-0.3s-0.2-0.3-0.3-0.5c-0.1-0.2-0.1-0.4-0.1-0.7
		c0-0.3,0.1-0.6,0.2-0.8c0.1-0.2,0.3-0.4,0.5-0.6c0.2-0.2,0.4-0.3,0.7-0.4s0.6-0.1,0.9-0.1c0.3,0,0.6,0,0.8,0.1s0.6,0.2,1,0.3
		l-0.6,1.1c-0.4-0.2-0.8-0.3-1.2-0.3c-0.1,0-0.2,0-0.3,0c-0.1,0-0.2,0-0.2,0.1c-0.1,0-0.1,0.1-0.2,0.2s-0.1,0.2-0.1,0.3
		c0,0.1,0,0.2,0.1,0.3s0.1,0.1,0.1,0.2s0.1,0.1,0.2,0.1c0.1,0,0.2,0.1,0.2,0.1l0.5,0.2c0.2,0.1,0.4,0.2,0.6,0.3
		c0.2,0.1,0.3,0.2,0.5,0.4c0.1,0.1,0.2,0.3,0.3,0.5s0.1,0.5,0.1,0.8s-0.1,0.6-0.2,0.8c-0.1,0.3-0.3,0.5-0.5,0.6
		c-0.2,0.2-0.5,0.3-0.8,0.4c-0.3,0.1-0.7,0.1-1.1,0.1c-0.2,0-0.4,0-0.5,0c-0.2,0-0.3,0-0.5-0.1c-0.1,0-0.3-0.1-0.4-0.1
		s-0.3-0.1-0.5-0.2l0.3-1.3c0.2,0.1,0.5,0.1,0.7,0.2c0.2,0.1,0.5,0.1,0.7,0.1c0.3,0,0.6,0,0.8-0.1c0.2-0.1,0.3-0.3,0.3-0.5
		c0-0.1,0-0.2,0-0.3c0-0.1-0.1-0.2-0.2-0.2c-0.1-0.1-0.2-0.1-0.3-0.1l-0.3-0.1L-22.1,1.9z M-18.4,0.1l1.4,0v2.4c0,0.2,0,0.4,0.1,0.5
		c0,0.1,0.1,0.3,0.2,0.3c0.1,0.1,0.2,0.1,0.3,0.2c0.1,0,0.2,0,0.4,0c0.2,0,0.3,0,0.5,0l0-0.2V0.1h1.4v4.4c-0.2,0.1-0.5,0.1-0.8,0.2
		c-0.3,0.1-0.6,0.1-0.9,0.1c-0.3,0-0.6,0-0.9-0.1s-0.5-0.1-0.7-0.3s-0.4-0.4-0.5-0.7s-0.2-0.7-0.2-1.2C-18.4,2.6-18.4,0.1-18.4,0.1z
		 M-13.3,1.2H-14l0.6-1.1h1.3l0.1,0.5c0.1-0.2,0.3-0.3,0.5-0.4c0.2-0.1,0.4-0.1,0.7-0.1c0.6,0,1.1,0.2,1.3,0.7
		c0.2-0.2,0.3-0.4,0.5-0.5s0.5-0.2,0.8-0.2c0.5,0,0.9,0.1,1.2,0.4c0.2,0.3,0.4,0.7,0.4,1.4v2.9H-8V2.1c0-0.3,0-0.5-0.1-0.6
		s-0.3-0.2-0.5-0.2c-0.1,0-0.2,0-0.3,0C-9,1.3-9,1.4-9.1,1.4c-0.1,0.1-0.1,0.1-0.1,0.2s0,0.2,0,0.4v2.7h-1.4V2.1
		c0-0.3-0.1-0.5-0.2-0.6c-0.1-0.1-0.3-0.2-0.4-0.2c-0.1,0-0.2,0-0.3,0s-0.1,0.1-0.2,0.1c-0.1,0.1-0.1,0.1-0.1,0.2
		c0,0.1-0.1,0.2-0.1,0.4v2.7h-1.4L-13.3,1.2L-13.3,1.2z M-3.9,3.6h2.1v1.2h-3.8v-1l0.1-0.2l0.4-0.4l0.5-0.6L-4.1,2l0.5-0.5l0.3-0.3
		l-0.1,0h-1v0.5l-1.1-0.3V0.1h3.7v1.1L-3.9,3.6z"/>
</g>
</svg>
